<svg width="32" height="32" viewBox="0 0 32 32" fill="none" xmlns="http://www.w3.org/2000/svg">
<path d="M2.54477 0.334215C1.64916 0.33445 0.84298 0.877478 0.505966 1.70752C0.168952 2.53757 0.368306 3.48911 1.01013 4.11396L12.6597 15.7671L1.01013 27.4202C0.435156 27.9724 0.203545 28.7924 0.404617 29.564C0.60569 30.3355 1.20803 30.938 1.97933 31.1392C2.75063 31.3403 3.57037 31.1086 4.12241 30.5335L15.772 18.8803L27.4215 30.5335C27.9736 31.1086 28.7933 31.3403 29.5646 31.1392C30.3359 30.938 30.9383 30.3355 31.1393 29.564C31.3404 28.7924 31.1088 27.9724 30.5338 27.4202L18.8842 15.7671L30.5338 4.11396C31.1848 3.48101 31.3805 2.51323 31.0267 1.67695C30.6729 0.840671 29.8421 0.307447 28.9347 0.334215C28.3629 0.351258 27.8202 0.590309 27.4215 1.00072L15.772 12.6539L4.12241 1.00072C3.70803 0.574636 3.13903 0.33425 2.54477 0.334215Z" fill="url(#paint0_linear)"/>
<defs>
<linearGradient id="paint0_linear" x1="0.333374" y1="0.333252" x2="0.333374" y2="31.2104" gradientUnits="userSpaceOnUse">
<stop stop-color="#8E8E93"/>
<stop offset="1" stop-color="#AEAEB2"/>
</linearGradient>
</defs>
</svg>
