<svg width="140" height="51" viewBox="0 0 140 51" fill="none" xmlns="http://www.w3.org/2000/svg">
<g clip-path="url(#clip0)">
<path d="M42.3672 10.0483L26.6564 0.924257C25.6185 0.331784 24.321 0 23 0C21.679 0 20.3815 0.331784 19.3436 0.924257L3.65641 10.0483C1.50974 11.2807 0 13.8875 0 16.3759V34.6004C0 37.0888 1.50974 39.6956 3.65641 40.9517L19.3436 50.0757C20.3815 50.6682 21.679 51 23 51C24.321 51 25.6185 50.6682 26.6564 50.0757L42.3672 40.9754C44.5138 39.7193 46.0236 37.1125 46.0236 34.6241V16.3759C46 13.8875 44.5138 11.2807 42.3672 10.0483ZM2.78359 16.3759C2.78359 14.8829 3.75077 13.2003 5.02462 12.4656L7.28923 11.1622L20.7354 3.36524C21.3487 3.00976 22.1508 2.82017 22.9764 2.82017C23.8256 2.82017 24.6041 3.00976 25.241 3.36524L38.7344 11.1859L40.9282 12.4656C42.2021 13.2003 43.1692 14.9066 43.1692 16.3759V27.1589V34.6004C43.1692 35.3824 42.9097 36.1882 42.4851 36.9229C42.0841 37.5864 41.5415 38.1789 40.9282 38.5344L25.2646 47.6348C24.6513 47.9902 23.8492 48.1798 23 48.1798C22.1508 48.1798 21.3723 47.9902 20.759 47.6348L5.0482 38.5344C4.41128 38.1789 3.86872 37.5627 3.46769 36.8755C3.04308 36.1645 2.80718 35.3587 2.80718 34.6004V27.467V16.3759H2.78359Z" fill="#3C0080"/>
<path d="M19.8154 31.9197C20.0749 32.37 20.3579 32.8203 20.6174 33.1995C20.759 33.4128 20.9949 33.5312 21.2544 33.5312H24.2031C24.4154 33.5312 24.6041 33.4602 24.7456 33.2943C24.7692 33.2706 25.3826 32.37 25.642 31.9197C26.5149 32.133 29.039 32.37 29.039 32.37C29.039 32.37 28.7795 28.5071 27.5056 27.0615C27.7887 25.6395 27.8595 24.1939 27.5764 22.7957C27.0338 20.1651 25.1467 18.1033 23.2831 16.2311C22.9764 15.923 22.5046 15.923 22.1979 16.2311C20.2164 18.1981 18.4236 20.1651 17.881 22.7957C17.5979 24.1702 17.6687 25.6395 17.9518 27.0615C16.6779 28.5071 16.4185 32.37 16.4185 32.37C16.4185 32.37 18.9426 32.1567 19.8154 31.9197Z" fill="#3C0080"/>
<path d="M18.4483 35.2767C18.8296 35.9383 19.2455 36.5999 19.6267 37.157C19.8347 37.4703 20.1813 37.6444 20.5625 37.6444H24.8949C25.2068 37.6444 25.4841 37.54 25.6921 37.2962C25.7267 37.2614 26.6279 35.9383 27.0091 35.2767C28.2915 35.5901 32 35.9383 32 35.9383C32 35.9383 31.6188 30.2627 29.7472 28.1387C30.1631 26.0496 30.267 23.9256 29.8511 21.8713C29.054 18.0063 26.2813 14.977 23.5432 12.2263C23.0926 11.7736 22.3995 11.7736 21.9489 12.2263C19.0375 15.1163 16.4034 18.0063 15.6063 21.8713C15.1904 23.8908 15.2944 26.0496 15.7103 28.1387C13.8387 30.2627 13.4574 35.9383 13.4574 35.9383C13.4574 35.9383 17.1659 35.6249 18.4483 35.2767Z" fill="#3C0080"/>
</g>
<path d="M63.4 17.136C63.4 14.714 61.664 13.16 59.466 13.16C57.268 13.16 55.532 14.714 55.532 17.136C55.532 19.558 57.198 21.126 59.396 21.126C61.608 21.126 63.4 19.558 63.4 17.136ZM57.156 17.136C57.156 15.386 58.234 14.546 59.438 14.546C60.628 14.546 61.762 15.386 61.762 17.136C61.762 18.886 60.586 19.74 59.396 19.74C58.192 19.74 57.156 18.886 57.156 17.136ZM68.0825 17.108C68.0825 19.488 69.6925 21.126 71.6805 21.126C72.9825 21.126 73.9485 20.482 74.3965 19.88V24.668H76.0065V13.286H74.3965V14.406C73.9485 13.776 73.0105 13.16 71.7365 13.16C69.6925 13.16 68.0825 14.728 68.0825 17.108ZM74.3965 17.136C74.3965 18.802 73.2625 19.74 72.0585 19.74C70.8685 19.74 69.7205 18.774 69.7205 17.108C69.7205 15.442 70.8685 14.546 72.0585 14.546C73.2625 14.546 74.3965 15.484 74.3965 17.136ZM85.0887 13.286H83.4927V17.584C83.4927 18.998 82.7227 19.726 81.5467 19.726C80.3847 19.726 79.6147 18.998 79.6147 17.584V13.286H78.0327V17.822C78.0327 19.978 79.4047 21.112 81.2107 21.112C82.1207 21.112 82.9887 20.734 83.4927 20.076V21H85.0887V13.286ZM90.4425 14.504C91.6325 14.504 92.5705 15.26 92.5985 16.45H88.3285C88.4965 15.232 89.3645 14.504 90.4425 14.504ZM94.0545 18.704H92.3325C92.0385 19.306 91.4925 19.782 90.5125 19.782C89.3365 19.782 88.4265 19.012 88.3145 17.738H94.2085C94.2505 17.472 94.2645 17.22 94.2645 16.954C94.2645 14.686 92.7105 13.16 90.5125 13.16C88.2305 13.16 86.6625 14.714 86.6625 17.136C86.6625 19.558 88.3005 21.126 90.5125 21.126C92.4025 21.126 93.6205 20.048 94.0545 18.704ZM56.602 37.508C56.602 40.118 58.06 41 60.148 41H61.714V38.39H60.616C59.932 38.39 59.68 38.138 59.68 37.544V33.512H61.696V30.956H59.68V28.508H56.602V30.956H55.378V33.512H56.602V37.508ZM67.8565 33.278C68.8825 33.278 69.7465 33.908 69.7465 35.006H65.8945C66.0745 33.89 66.8485 33.278 67.8565 33.278ZM72.6625 37.67H69.3865C69.1345 38.21 68.6485 38.642 67.7845 38.642C66.7945 38.642 65.9845 38.03 65.8765 36.716H72.8425C72.8785 36.41 72.8965 36.104 72.8965 35.816C72.8965 32.756 70.8265 30.812 67.8925 30.812C64.9045 30.812 62.8165 32.792 62.8165 35.978C62.8165 39.164 64.9405 41.144 67.8925 41.144C70.3945 41.144 72.1765 39.632 72.6625 37.67ZM92.1768 41H95.2368V35.132C95.2368 32.432 93.6348 30.848 91.1508 30.848C89.6928 30.848 88.4328 31.658 87.7668 32.72C87.0828 31.514 85.8588 30.848 84.3468 30.848C83.0328 30.848 82.0068 31.406 81.4128 32.216V30.956H78.3348V41H81.4128V35.546C81.4128 34.232 82.1688 33.512 83.3388 33.512C84.5088 33.512 85.2648 34.232 85.2648 35.546V41H88.3248V35.546C88.3248 34.232 89.0808 33.512 90.2508 33.512C91.4208 33.512 92.1768 34.232 92.1768 35.546V41ZM107.217 35.978C107.217 32.792 104.949 30.812 101.997 30.812C99.0634 30.812 96.7774 32.792 96.7774 35.978C96.7774 39.164 99.0094 41.144 101.961 41.144C104.913 41.144 107.217 39.164 107.217 35.978ZM99.9094 35.978C99.9094 34.268 100.881 33.476 101.997 33.476C103.077 33.476 104.085 34.268 104.085 35.978C104.085 37.67 103.059 38.48 101.961 38.48C100.845 38.48 99.9094 37.67 99.9094 35.978ZM107.896 30.956L111.46 41H115.258L118.822 30.956H115.546L113.368 38.12L111.19 30.956H107.896ZM124.546 33.278C125.572 33.278 126.436 33.908 126.436 35.006H122.584C122.764 33.89 123.538 33.278 124.546 33.278ZM129.352 37.67H126.076C125.824 38.21 125.338 38.642 124.474 38.642C123.484 38.642 122.674 38.03 122.566 36.716H129.532C129.568 36.41 129.586 36.104 129.586 35.816C129.586 32.756 127.516 30.812 124.582 30.812C121.594 30.812 119.506 32.792 119.506 35.978C119.506 39.164 121.63 41.144 124.582 41.144C127.084 41.144 128.866 39.632 129.352 37.67ZM130.598 31.55H133.496C133.496 30.722 133.982 30.182 134.864 30.182C135.656 30.182 136.16 30.686 136.16 31.496C136.178 32.81 135.008 33.116 133.316 33.116H132.236L132.326 36.464H135.026L135.116 35.114C137.474 35.096 139.148 33.836 139.148 31.514C139.148 29.012 137.402 27.662 134.9 27.662C132.056 27.662 130.544 29.39 130.598 31.55ZM135.53 39.488C135.53 38.534 134.792 37.796 133.712 37.796C132.614 37.796 131.876 38.534 131.876 39.488C131.876 40.406 132.614 41.144 133.712 41.144C134.792 41.144 135.53 40.406 135.53 39.488Z" fill="#3C0080"/>
<defs>
<clipPath id="clip0">
<rect width="46" height="51" fill="white"/>
</clipPath>
</defs>
</svg>
