<svg width="120" height="92" viewBox="0 0 120 92" fill="none" xmlns="http://www.w3.org/2000/svg">
<path d="M25.8975 1.63372C25.3968 1.12284 24.8003 0.715623 24.1422 0.435346C23.4841 0.155069 22.7771 0.00722315 22.0618 0.000258127C21.3465 -0.00670689 20.6368 0.127344 19.9734 0.394752C19.3099 0.66216 18.7056 1.05768 18.195 1.55872C12.4197 7.30056 7.83839 14.1292 4.71552 21.6506C1.59265 29.1719 -0.00998976 37.2373 4.68503e-05 45.3812C-0.00932031 53.8376 1.71945 62.2057 5.07906 69.9661C8.43868 77.7265 13.3574 84.7135 19.53 90.4937C20.5689 91.454 21.9412 91.9716 23.3556 91.9366C24.7699 91.9016 26.1149 91.3167 27.105 90.3062C29.475 87.9362 29.1825 84.1637 26.9025 81.9812C21.9488 77.2602 18.0067 71.5812 15.3159 65.2894C12.6251 58.9975 11.2418 52.2243 11.25 45.3812C11.25 31.5362 16.8075 18.9812 25.8225 9.84622C27.9975 7.63372 28.2225 3.95872 25.8975 1.63372Z" fill="#D2B1F7"/>
<path d="M39.105 14.8486C38.1173 13.8322 36.7669 13.2489 35.3498 13.2264C33.9327 13.2039 32.5645 13.7441 31.545 14.7286C27.4862 18.7341 24.2648 23.507 22.0681 28.7694C19.8715 34.0318 18.7436 39.6786 18.75 45.381C18.75 58.071 24.225 69.4785 32.9475 77.361C33.9769 78.2705 35.3167 78.7489 36.6893 78.6973C38.0619 78.6456 39.3619 78.0678 40.32 77.0835C42.78 74.6235 42.3225 70.7535 40.0125 68.5785C36.8461 65.602 34.3238 62.0077 32.6017 58.0177C30.8795 54.0277 29.994 49.7268 30 45.381C30 36.756 33.4275 28.926 39 23.1811C41.145 20.9761 41.4975 17.2336 39.105 14.8486Z" fill="#D2B1F7"/>
<path d="M80.8614 14.6228C81.8492 13.6065 83.1996 13.0232 84.6166 13.0007C86.0337 12.9782 87.4019 13.5184 88.4214 14.5029C92.4802 18.5084 95.7017 23.2813 97.8983 28.5437C100.095 33.8061 101.223 39.4529 101.216 45.1553C101.216 57.8453 95.7414 69.2528 87.0189 77.1353C85.9896 78.0448 84.6497 78.5232 83.2772 78.4716C81.9046 78.4199 80.6045 77.8421 79.6464 76.8578C77.1864 74.3978 77.6439 70.5278 79.9539 68.3528C83.1204 65.3763 85.6426 61.7819 87.3648 57.792C89.087 53.802 89.9724 49.5011 89.9664 45.1553C89.9664 36.5303 86.5389 28.7003 80.9664 22.9553C78.8214 20.7503 78.4689 17.0078 80.8614 14.6228Z" fill="#D2B1F7"/>
<path d="M94.1027 1.63372C94.6034 1.12284 95.1998 0.715623 95.858 0.435346C96.5161 0.155069 97.2231 0.00722315 97.9384 0.000258127C98.6537 -0.00670689 99.3634 0.127344 100.027 0.394752C100.69 0.66216 101.295 1.05768 101.805 1.55872C107.581 7.30056 112.162 14.1292 115.285 21.6506C118.408 29.1719 120.01 37.2373 120 45.3812C120.01 53.8376 118.281 62.2057 114.921 69.9661C111.562 77.7265 106.643 84.7135 100.47 90.4937C99.4313 91.454 98.059 91.9716 96.6446 91.9366C95.2303 91.9016 93.8853 91.3167 92.8952 90.3062C90.5252 87.9362 90.8177 84.1637 93.1052 81.9812C98.0576 77.2595 101.998 71.5803 104.688 65.2885C107.377 58.9967 108.759 52.2237 108.75 45.3812C108.75 31.5362 103.193 18.9812 94.1777 9.84622C92.0027 7.63372 91.7777 3.95872 94.1027 1.63372Z" fill="#D2B1F7"/>
<path d="M60 34.1313C57.0163 34.1313 54.1548 35.3165 52.045 37.4263C49.9353 39.5361 48.75 42.3976 48.75 45.3813C48.75 48.365 49.9353 51.2264 52.045 53.3362C54.1548 55.446 57.0163 56.6313 60 56.6313C62.9837 56.6313 65.8452 55.446 67.9549 53.3362C70.0647 51.2264 71.25 48.365 71.25 45.3813C71.25 42.3976 70.0647 39.5361 67.9549 37.4263C65.8452 35.3165 62.9837 34.1313 60 34.1313Z" fill="#D2B1F7"/>
</svg>
