<svg width="21" height="24" viewBox="0 0 21 24" fill="none" xmlns="http://www.w3.org/2000/svg">
<path d="M10.9527 0.0202511C12.2615 0 13.5628 0.0120006 14.8626 0C14.9414 1.53083 15.4919 3.09016 16.6125 4.17247C17.7308 5.28178 19.3126 5.78956 20.8517 5.96132V9.98828C19.4094 9.94103 17.9603 9.64101 16.6515 9.01998C16.0815 8.76197 15.5504 8.4297 15.0307 8.08993C15.0239 11.0121 15.0427 13.9305 15.0119 16.8406C14.9339 18.2387 14.4726 19.63 13.6596 20.7821C12.3515 22.7 10.0811 23.9503 7.74926 23.9893C6.31894 24.071 4.89011 23.681 3.6713 22.9625C1.65144 21.7714 0.230113 19.591 0.023102 17.2509C-0.00297329 16.7553 -0.00697749 16.2588 0.0111013 15.7628C0.191111 13.86 1.13241 12.0396 2.59349 10.8013C4.24958 9.359 6.56945 8.67196 8.74157 9.07848C8.76182 10.5598 8.70257 12.0396 8.70257 13.521C7.71026 13.2 6.5507 13.29 5.68365 13.8922C5.0493 14.3101 4.56992 14.925 4.31933 15.6421C4.11232 16.1491 4.17157 16.7124 4.18357 17.2509C4.42134 18.892 5.99942 20.2713 7.68401 20.1221C8.80082 20.1101 9.87113 19.462 10.4532 18.5132C10.6414 18.181 10.8522 17.8412 10.8634 17.4504C10.9617 15.6616 10.9227 13.8802 10.9347 12.0914C10.9429 8.05993 10.9227 4.03972 10.9534 0.0210011L10.9527 0.0202511Z" fill="#FF375F"/>
</svg>
