<svg width="16" height="12" viewBox="0 0 16 12" fill="none" xmlns="http://www.w3.org/2000/svg">
<path d="M15.6661 1.78526C15.575 1.43956 15.3964 1.1243 15.1482 0.871039C14.9 0.617775 14.5909 0.435387 14.2518 0.342129C13.0036 6.94212e-08 8 0 8 0C8 0 2.99643 -6.94212e-08 1.74821 0.340309C1.40897 0.433265 1.09969 0.615551 0.851439 0.868862C0.603191 1.12217 0.424713 1.43759 0.333929 1.78344C-6.81196e-08 3.05733 0 5.71429 0 5.71429C0 5.71429 -6.81196e-08 8.37125 0.333929 9.64331C0.517857 10.3458 1.06071 10.899 1.74821 11.0864C2.99643 11.4286 8 11.4286 8 11.4286C8 11.4286 13.0036 11.4286 14.2518 11.0864C14.9411 10.899 15.4821 10.3458 15.6661 9.64331C16 8.37125 16 5.71429 16 5.71429C16 5.71429 16 3.05733 15.6661 1.78526ZM6.41071 8.15287V3.27571L10.5536 5.69609L6.41071 8.15287Z" fill="#FF375F"/>
</svg>
